<svg xmlns="http://www.w3.org/2000/svg" width="40.588" height="17.502" viewBox="0 0 40.588 17.502">
  <g id="ico_handmade_dsk" transform="translate(0.249 0.365)">
    <g id="Group_7868" data-name="Group 7868" transform="translate(-3.28 -3.774)" opacity="0.9">
      <g id="Group_7028" data-name="Group 7028" transform="translate(3.28 3.774)">
        <g id="Group_7027" data-name="Group 7027">
          <path id="Path_10619" data-name="Path 10619" d="M116.078,135.889h18.336l-3.96,1.8H114.969" transform="translate(-94.325 -121.678)" fill="none" stroke="#fff" stroke-linecap="round" stroke-linejoin="round" stroke-width="0.5"/>
          <path id="Path_10620" data-name="Path 10620" d="M90.356,136.221c5.655,1.4,8.542-1.342,9.3-2.227a.257.257,0,0,1,.407.023l.5.725s.358.525.588.839a.48.48,0,0,0,.389.2h4.99l2.1-3.457-3.069-.021-2.552,1.587a.613.613,0,0,1-.78-.074,13.449,13.449,0,0,0-2.463-2.377c-1.589-.84-6.992-1.775-6.992-1.775a19.293,19.293,0,0,0-3.3-.435,4.3,4.3,0,0,0-2.393.643,2.993,2.993,0,0,0-1.122,1.884,3.143,3.143,0,0,0,.133,1.655C87.061,135.5,90.356,136.221,90.356,136.221Z" transform="translate(-85.921 -119.767)" fill="none" stroke="#fff" stroke-linecap="round" stroke-linejoin="round" stroke-width="0.5"/>
          <path id="Path_10621" data-name="Path 10621" d="M95.117,131.884c.842.113,2.548.46,2.93.544.588.128.905.389.978.862.079.517-.3.854-1.025,1.361a7.228,7.228,0,0,1-4.889,1.061c-4.563-.613-4.8-2.342-4.684-3.069.078-.511.4-1.623,2.4-1.388C91.852,131.375,93.16,131.622,95.117,131.884Z" transform="translate(-86.634 -120.34)" fill="none" stroke="#fff" stroke-linecap="round" stroke-linejoin="round" stroke-width="0.5"/>
          <path id="Path_10622" data-name="Path 10622" d="M107,129.4a3.142,3.142,0,0,1,1.091,1.357,23.362,23.362,0,0,1,.576,3.286" transform="translate(-91.966 -119.818)" fill="none" stroke="#fff" stroke-linecap="round" stroke-linejoin="round" stroke-width="0.5"/>
          <path id="Path_10623" data-name="Path 10623" d="M107,129.4" transform="translate(-91.966 -119.818)" fill="none" stroke="#fff" stroke-linecap="round" stroke-linejoin="round" stroke-width="0.5"/>
          <path id="Path_10624" data-name="Path 10624" d="M108.784,128.457a14.277,14.277,0,0,0-2.616-3.478c-.708-.641-.892-1.091-.709-1.429a11.664,11.664,0,0,0,.7-1.449,4.982,4.982,0,0,0-.031-3.292,4.508,4.508,0,1,0-8.358,3.382,4.965,4.965,0,0,0,1.461,1.931c1.484,1.213,3.777.409,5.033,1.426" transform="translate(-89.231 -115.965)" fill="none" stroke="#fff" stroke-linecap="round" stroke-linejoin="round" stroke-width="0.5"/>
          <path id="Path_10625" data-name="Path 10625" d="M112,131.74" transform="translate(-93.4 -120.489)" fill="none" stroke="#fff" stroke-linecap="round" stroke-linejoin="round" stroke-width="0.5"/>
          <circle id="Ellipse_57" data-name="Ellipse 57" cx="3.056" cy="3.056" r="3.056" transform="translate(9.645 1.375)" fill="none" stroke="#fff" stroke-linecap="round" stroke-linejoin="round" stroke-width="0.5"/>
          <ellipse id="Ellipse_58" data-name="Ellipse 58" cx="1.256" cy="0.797" rx="1.256" ry="0.797" transform="matrix(0.751, -0.661, 0.661, 0.751, 18.38, 14.529)" fill="none" stroke="#fff" stroke-linecap="round" stroke-linejoin="round" stroke-width="0.5"/>
          <path id="Path_10626" data-name="Path 10626" d="M117.775,133.066h0l2-1.024,13.687-.99-.265.23-12.751,3.438" transform="translate(-95.055 -120.512)" fill="none" stroke="#fff" stroke-linecap="round" stroke-linejoin="round" stroke-width="0.5"/>
        </g>
      </g>
    </g>
  </g>
</svg>
